<svg width="34" height="62" viewBox="0 0 34 62" fill="none" xmlns="http://www.w3.org/2000/svg">
<g clip-path="url(#clip0)">
<path fill-rule="evenodd" clip-rule="evenodd" d="M17.4332 0.534734C17.4565 0.543914 17.4792 0.554887 17.5012 0.567623L33.7457 9.73123C33.9028 9.81987 34 9.98629 34 10.1667C34 10.2021 33.9963 10.237 33.9891 10.2709C33.9963 10.3047 34 10.3396 34 10.375V29.125C34 29.3513 33.8481 29.5494 33.6295 29.608C33.4109 29.6666 33.1803 29.5711 33.0671 29.3752L24.9421 15.3131C24.8757 15.1982 24.8577 15.0617 24.892 14.9335L24.8957 14.9204L17.25 1.98278L9.60428 14.9205L9.60797 14.9335C9.6423 15.0617 9.6243 15.1982 9.55793 15.3131L1.43293 29.3752C1.31973 29.5711 1.08906 29.6666 0.87051 29.608C0.651958 29.5494 0.5 29.3513 0.5 29.125V10.375C0.5 10.3396 0.503745 10.3047 0.510955 10.2709C0.503745 10.237 0.5 10.2021 0.5 10.1667C0.500003 9.98629 0.597201 9.81987 0.754339 9.73123L16.9988 0.567655C17.0207 0.554905 17.0435 0.543921 17.0669 0.534734C17.1261 0.5114 17.1882 0.499979 17.25 0.5C17.3118 0.499978 17.374 0.5114 17.4332 0.534734ZM25.5569 14.0737L18.6301 2.35262L32.4824 10.1667L25.5569 14.0737ZM33 27.2602L26.0582 15.246L33 11.2408V27.2602ZM8.9431 14.0737L2.01763 10.1667L15.8699 2.35261L8.9431 14.0737ZM1.5 27.2602V11.2408L8.44177 15.246L1.5 27.2602ZM17.4332 62.0903C17.4565 62.0811 17.4792 62.0701 17.5012 62.0574L33.7457 52.8938C33.9028 52.8051 34 52.6387 34 52.4583C34 52.4229 33.9963 52.388 33.9891 52.3541C33.9963 52.3203 34 52.2854 34 52.25V33.5C34 33.2737 33.8481 33.0756 33.6295 33.017C33.4109 32.9584 33.1803 33.0539 33.0671 33.2498L24.9421 47.3119C24.8757 47.4268 24.8577 47.5633 24.892 47.6915L24.8957 47.7046L17.25 60.6422L9.60428 47.7045L9.60797 47.6915C9.6423 47.5633 9.6243 47.4268 9.55793 47.3119L1.43293 33.2498C1.31973 33.0539 1.08906 32.9584 0.87051 33.017C0.651958 33.0756 0.5 33.2737 0.5 33.5V52.25C0.5 52.2854 0.503745 52.3203 0.510955 52.3541C0.503745 52.388 0.5 52.4229 0.5 52.4583C0.500003 52.6387 0.597201 52.8051 0.754339 52.8938L16.9988 62.0573C17.0207 62.0701 17.0435 62.0811 17.0669 62.0903C17.1261 62.1136 17.1882 62.125 17.25 62.125C17.3118 62.125 17.374 62.1136 17.4332 62.0903ZM25.5569 48.5513L18.6301 60.2724L32.4824 52.4583L25.5569 48.5513ZM33 35.3648L26.0582 47.379L33 51.3842V35.3648ZM8.9431 48.5513L2.01763 52.4583L15.8699 60.2724L8.9431 48.5513ZM1.5 35.3648V51.3842L8.44177 47.379L1.5 35.3648Z" fill="white"/>
<path d="M17.25 19.75V38.5L1 29.1242L17.25 19.75Z" fill="url(#paint0_linear)" stroke="white" stroke-linejoin="round"/>
<path d="M33.5 29.1242L17.25 38.5V19.75L33.5 29.1242Z" fill="url(#paint1_linear)" stroke="white" stroke-linejoin="round"/>
<path d="M17.25 1V19.751L1 29.125L9.12423 15.0633L17.25 1Z" fill="url(#paint2_linear)" stroke="white" stroke-linejoin="round"/>
<path d="M33.5 29.125L17.25 19.751V1L25.3758 15.0633L33.5 29.125Z" fill="url(#paint3_linear)" stroke="white" stroke-linejoin="round"/>
<path d="M17.25 42.2505V61L9.12577 46.9383L1 32.875L17.25 42.2505Z" fill="url(#paint4_linear)" stroke="white" stroke-linejoin="round"/>
<path d="M33.5 32.875L25.3742 46.9383L17.25 61V42.2505L33.5 32.875Z" fill="url(#paint5_linear)" stroke="white" stroke-linejoin="round"/>
</g>
<defs>
<linearGradient id="paint0_linear" x1="3.59241" y1="22.7048" x2="15.3708" y2="35.7644" gradientUnits="userSpaceOnUse">
<stop stop-color="#E3E3E3"/>
<stop offset="1" stop-color="#363636"/>
</linearGradient>
<linearGradient id="paint1_linear" x1="19.8424" y1="22.7048" x2="31.6208" y2="35.7644" gradientUnits="userSpaceOnUse">
<stop stop-color="#E3E3E3"/>
<stop offset="1" stop-color="#363636"/>
</linearGradient>
<linearGradient id="paint2_linear" x1="3.59241" y1="5.43215" x2="20.573" y2="17.984" gradientUnits="userSpaceOnUse">
<stop stop-color="#E3E3E3"/>
<stop offset="1" stop-color="#363636"/>
</linearGradient>
<linearGradient id="paint3_linear" x1="19.8424" y1="5.43215" x2="36.823" y2="17.984" gradientUnits="userSpaceOnUse">
<stop stop-color="#E3E3E3"/>
<stop offset="1" stop-color="#363636"/>
</linearGradient>
<linearGradient id="paint4_linear" x1="3.59241" y1="37.3072" x2="20.573" y2="49.859" gradientUnits="userSpaceOnUse">
<stop stop-color="#E3E3E3"/>
<stop offset="1" stop-color="#363636"/>
</linearGradient>
<linearGradient id="paint5_linear" x1="19.8424" y1="37.3072" x2="36.823" y2="49.859" gradientUnits="userSpaceOnUse">
<stop stop-color="#E3E3E3"/>
<stop offset="1" stop-color="#363636"/>
</linearGradient>
<clipPath id="clip0">
<rect width="34" height="62" fill="white"/>
</clipPath>
</defs>
</svg>
